<svg version="1.1" xmlns="http://www.w3.org/2000/svg" xmlns:xlink="http://www.w3.org/1999/xlink" x="0px" y="0px" width="660.5px"
	 height="141.1px" viewBox="0 0 660.5 141.1" style="enable-background:new 0 0 660.5 141.1;" xml:space="preserve">
<style type="text/css">
	.st0{fill:#003C89;}
</style>
<defs>
</defs>
<g>
	<path class="st0" d="M330,53H322v35.4h7.9c12.7-0.3,17.7-5.2,17.7-18C347.7,58.6,341.4,53,330,53z"/>
	<polygon class="st0" points="268.4,56.3 260.9,78.7 275.9,78.7 268.6,56.3 	"/>
	<path class="st0" d="M0,0v141.1h660.5V0H0z M134.7,83.2v-6.2H51.5V64.1h96.3v31.8H32.3v-51h115.4l-0.1,12.7H45v25.5H134.7z
		 M231.3,102.7l-13,0v-6c-4.4,5.4-12.2,7.3-18.5,7.3c-20.7,0-34-14.7-34-33.3c0-18.6,13.3-33.3,34-33.3c14.2,0,30.6,7.1,31.4,23.1
		h-17.7c-0.2-5.2-6.9-8.8-14.1-8.8c-11.5,0-15.9,9.5-15.9,19c0,9.5,4.4,19,15.9,19c8.8,0,14.7-3.8,15.7-9.7h-12.4V67.6h28.6V102.7z
		 M284,102.6l-4.1-11.5h-23l-4.2,11.5h-17.7l24.7-64h17.5l24.7,64H284z M332.9,102.7h-27.6v-64h27.6c19.7,0,31.5,12.7,31.5,31.8
		C364.4,89.6,352.4,102.7,332.9,102.7z M424.9,102.6h-54v-64l54-0.1l0,14.1H388v11.5h34V77h-34v11.2h36.9V102.6z M477.7,102.6h-45.4
		v-64h17.2v49.7h28.3V102.6z M502.2,102.6h-17.2v-64h17.2V102.6z M567.4,76.1c0,18.5-8.8,27.8-28.8,27.8c-20,0-28.8-9.2-28.8-27.8
		V38.5H527v38.5c0,8.2,3.2,12.5,11.6,12.5c8.4,0,11.6-4.2,11.6-12.5V38.5h17.2V76.1z M601.9,104c-15.2,0-28.5-6.5-28.6-22.9h17.2
		c0.4,7.5,5.2,10,12.5,10c5.2,0,10.5-1.8,10.5-6.5c0-5.7-9.4-6.7-18.9-9.2c-9.4-2.6-19.3-6.7-19.3-18.5c0-14,14.5-19.5,26.9-19.5
		c13.2,0,26.3,6.2,26.4,20.6h-17.2c0.3-5.8-5.4-7.7-10.6-7.7c-3.7,0-8.4,1.3-8.4,5.5c0,4.9,9.5,5.8,19.1,8.3
		c9.5,2.6,19.1,6.9,19.1,18.5C630.6,98.8,616.4,104,601.9,104z"/>
</g>
</svg>
